PathFileType	4	(X/Y/Z)	C:/Users/beibeiliu/ov580/test_trc\sequence.20_training_dense_left.trc
DataRate	CameraRate	NumFrames	NumMarkers	Units	OrigDataRate	OrigDataStartFrame	OrigNumFrames
120	120	8	19	mm	120	169	336
Frame#	Time	ThumbCMC			ThumbMCP			ThumbIP			ThumbTip			IndexMCP			IndexPIP			IndexTip			MiddleMCP			MiddlePIP			MiddleTip			RingMCP			RingPIP			RingTip			PinkyMCP			PinkyPIP			PinkyTip			BackHand1			BackHand2			BackHand3	
		X0	Y0	Z0	X1	Y1	Z1	X2	Y2	Z2	X3	Y3	Z3	X4	Y4	Z4	X5	Y5	Z5	X6	Y6	Z6	X7	Y7	Z7	X8	Y8	Z8	X9	Y9	Z9	X10	Y10	Z10	X11	Y11	Z11	X12	Y12	Z12	X13	Y13	Z13	X14	Y14	Z14	X15	Y15	Z15	X16	Y16	Z16	X17	Y17	Z17	X18	Y18	Z18	
168	1.4	-192.788	9.0152	5.06282	-216.048	-3.40947	1.03441	-236.474	-8.76628	-13.4211	-254.677	-17.1963	-21.6627	-211.716	18.6239	-56.9762	-236.7	20.1262	-71.9652	-261.915	19.0171	-69.9636	-210.594	45.5661	-61.2995	-231.713	49.9064	-78.5165	-265.461	47.3089	-76.7006	-209.692	63.4665	-52.2429	-227.273	62.6739	-69.7873	-248.751	61.2844	-73.5322	-210.506	77.9713	-32.5298	-226.71	82.9687	-50.8461	-244.17	80.2099	-57.6067	-183.847	58.5616	-13.4073	-171.113	57.3624	6.52287	-172.945	29.8989	-10.4931	
169	1.40833	-191.786	3.82351	11.2761	-218.917	-2.20627	0.835893	-238.021	-9.3239	-10.2132	-254.651	-16.0137	-15.2276	-214.752	14.7604	-54.1584	-239.156	12.2783	-67.6876	-263.412	12.6333	-64.081	-212.476	44.1679	-57.8051	-237.398	41.8642	-76.8104	-264.686	42.5397	-74.4392	-209.533	58.7799	-47.3219	-229.153	63.8785	-67.6871	-257.239	59.7248	-72.0553	-211.543	73.0102	-34.6286	-228.344	82.5601	-47.2895	-248.026	79.5086	-54.6502	-184.656	54.4739	-13.3146	-167.887	52.4834	6.07893	-174.539	29.8513	-10.2278	
170	1.41667	-194.422	3.30942	9.08362	-219.645	-8.29371	7.52481	-237.073	-13.3628	-1.37534	-259.455	-17.8336	-11.2497	-220.185	12.7601	-53.1695	-242.443	11.4294	-62.954	-268.796	12.5003	-57.5209	-216.37	40.7402	-58.7008	-241.738	37.5044	-74.3711	-268.453	42.7847	-67.4473	-213.679	58.962	-51.2887	-234.883	57.7425	-67.4044	-255.761	55.523	-68.5137	-212.033	74.9315	-32.0238	-227.52	76.8623	-46.6894	-252.763	73.7768	-52.8324	-186.141	56.3792	-12.736	-168.958	54.2061	5.57081	-174.945	28.1605	-8.57147	
171	1.425	-192.866	2.71469	12.8294	-219.566	-4.70683	9.36087	-239.691	-11.256	-1.17929	-256.067	-16.9771	-5.80681	-222.905	9.8573	-50.0545	-245.331	11.4534	-57.8227	-272.229	11.4968	-50.7972	-218.433	36.8666	-55.9574	-241.039	35.8157	-69.4879	-273.382	36.4202	-62.4002	-214.595	53.4015	-47.4268	-233.366	56.0979	-63.118	-262.354	52.1704	-64.944	-213.315	72.2753	-30.2859	-231.251	75.5665	-47.1366	-251.006	71.7668	-51.0704	-188.172	55.0564	-15.8984	-167.555	51.8894	7.41596	-176.549	23.3387	-6.08054	
172	1.43333	-192.169	3.55427	14.3644	-217.966	-9.62847	13.3593	-238.16	-14.0588	1.3615	-257.504	-22.4655	-1.43669	-220.183	8.6583	-44.7877	-246.51	8.63196	-54.9616	-270.697	5.63692	-45.8262	-219.846	36.098	-51.8247	-245.555	31.6709	-66.6296	-277.029	32.252	-55.5466	-218.028	50.9522	-49.4554	-240.668	51.6556	-62.1795	-264.263	50.2787	-59.6454	-216.226	73.428	-30.1603	-236.287	73.5496	-45.7708	-259.917	69.6185	-49.4565	-188.022	50.071	-15.3177	-170.207	53.5331	4.82573	-175.862	28.7921	-5.31941	
173	1.44167	-190.915	7.32737	13.3923	-217.367	-5.55518	11.5882	-237.381	-18.4972	4.64745	-254.508	-21.9936	0.18569	-221.301	9.48066	-43.3354	-251.533	4.39272	-50.1972	-272.083	7.1644	-39.3499	-222.545	33.3639	-51.0199	-251.248	28.649	-63.2479	-278.993	24.8849	-49.4834	-220.224	49.2663	-44.4725	-243.443	51.4638	-59.0495	-267.962	39.7124	-54.9269	-219.484	69.5209	-32.6028	-240.274	68.7559	-44.4301	-263.247	64.3917	-45.4837	-186.188	50.314	-14.1496	-173.443	53.1134	3.36985	-176.409	24.8488	-8.24202	
174	1.45	-189.931	9.00533	14.1799	-214.287	-4.83641	12.5801	-233.658	-20.1813	8.2742	-251.666	-21.9299	2.33247	-220.548	4.40601	-40.2264	-251.375	3.00946	-44.8372	-273.456	0.640339	-28.4844	-226.1	30.8124	-49.8698	-256.131	25.5079	-57.9292	-278.845	22.153	-44.823	-225.934	51.0283	-45.4573	-249.812	41.3641	-55.154	-272.16	34.9821	-46.4717	-224.747	68.9244	-31.7523	-243.665	64.2719	-43.2159	-266.416	56.7659	-40.6816	-191.007	55.8016	-17.25	-173.969	58.3934	2.41932	-176.365	29.1536	-7.01136	
175	1.45833	-186.202	12.006	16.8958	-211.429	-8.21552	16.6689	-230.372	-17.7725	11.4957	-249.189	-29.2241	10.072	-223.966	5.89164	-39.1807	-248.013	-5.46609	-41.7871	-270.32	-8.07881	-22.2625	-229.933	27.8926	-49.3108	-255.951	21.3871	-55.9065	-281.78	12.7578	-35.2585	-230.17	45.8062	-43.7181	-254.457	34.8168	-51.5202	-273.058	27.0417	-41.7151	-230.835	67.096	-32.3275	-249.873	60.7858	-40.8082	-270.943	48.5595	-38.2917	-192.881	55.0901	-12.7651	-177.38	58.652	1.69759	-177.196	32.1371	-6.54645	
